<svg xmlns="http://www.w3.org/2000/svg" id="Capa_1" data-name="Capa 1" viewBox="0 0 644.27 139.76"><defs><style>.cls-1{fill:#212121;}</style></defs><path class="cls-1" d="M754.92,587h-62v23.09H770a8,8,0,0,0,8-8V556.6H754.92Z" transform="translate(-638.25 -470.31)"></path><path class="cls-1" d="M770,470.31H646.24a8,8,0,0,0-8,8V602.09a8,8,0,0,0,8,8h15.1V493.4h93.58V525H778V478.3A8,8,0,0,0,770,470.31Z" transform="translate(-638.25 -470.31)"></path><rect class="cls-1" x="54.08" y="54.08" width="31.6" height="31.6"></rect><path class="cls-1" d="M868.4,500.1q12.2,0,20.48,7.7t8.27,19.67q0,12-8.27,19.66t-20.48,7.71h-18V580.6H832.41V500.1Zm-.46,37.83a10.6,10.6,0,0,0,7.77-3,10.68,10.68,0,0,0,0-15,10.64,10.64,0,0,0-7.77-3H850.35v20.93Z" transform="translate(-638.25 -470.31)"></path><path class="cls-1" d="M908.65,580.6V521.14h34v17.48H925.56v42Z" transform="translate(-638.25 -470.31)"></path><path class="cls-1" d="M1005.6,573.24q-9.32,8.73-23,8.74t-22.94-8.74q-9.27-8.75-9.26-22.43t9.32-22.37q9.31-8.79,22.88-8.79a32.16,32.16,0,0,1,22.94,8.85,29.4,29.4,0,0,1,9.38,22.31Q1014.92,564.51,1005.6,573.24Zm-33.92-11.79a14.87,14.87,0,0,0,10.92,4.2,15.07,15.07,0,0,0,11-4.2,15.14,15.14,0,0,0-.06-21.22A15,15,0,0,0,982.6,536a14.86,14.86,0,0,0-10.92,4.19,15.42,15.42,0,0,0,0,21.28Z" transform="translate(-638.25 -470.31)"></path><path class="cls-1" d="M1057.23,582q-14,0-23.46-8.74t-9.43-22.43q0-13.56,9.49-22.37t23.4-8.79a37.16,37.16,0,0,1,11.33,1.66,28.08,28.08,0,0,1,14.38,9.55,35.18,35.18,0,0,1,3.85,5.58,28.56,28.56,0,0,1,2,4.6l-17.94,2.18a7,7,0,0,0-1.26-2.3,13.9,13.9,0,0,0-4.37-3.16,16.62,16.62,0,0,0-7.94-1.78,15.39,15.39,0,0,0-11.09,4.25,14.92,14.92,0,0,0,0,21.22,15.48,15.48,0,0,0,11.09,4.2,17.75,17.75,0,0,0,5.29-.75,15.93,15.93,0,0,0,3.86-1.67,13.58,13.58,0,0,0,2.53-2.07,10,10,0,0,0,1.43-1.78,5.94,5.94,0,0,0,.46-1l17.83,2.19a33.5,33.5,0,0,1-2.93,6,42.08,42.08,0,0,1-5.47,6.84,26.77,26.77,0,0,1-9.54,6.15A35.67,35.67,0,0,1,1057.23,582Z" transform="translate(-638.25 -470.31)"></path><path class="cls-1" d="M1163.61,551v5.29h-47.15a14.48,14.48,0,0,0,5.23,8,15,15,0,0,0,9.37,2.94,18.64,18.64,0,0,0,7.71-1.5,13.75,13.75,0,0,0,4.25-2.53,15.08,15.08,0,0,0,1.5-2l16.56,3.22a30.36,30.36,0,0,1-3.39,5.29,43.28,43.28,0,0,1-5.52,5.52,26.93,26.93,0,0,1-9.09,4.83,39.5,39.5,0,0,1-12.36,1.84q-14,0-23.46-8.74t-9.43-22.43a29.21,29.21,0,0,1,9.49-22.31q9.48-8.85,23.4-8.85t23.46,8.91Q1163.6,537.47,1163.61,551Zm-47.15-6h29a13.08,13.08,0,0,0-5.23-7.88,15.9,15.9,0,0,0-9.49-2.93,15,15,0,0,0-8.86,2.76A14.15,14.15,0,0,0,1116.46,545.06Z" transform="translate(-638.25 -470.31)"></path><path class="cls-1" d="M1176.26,580.6V521.14h34v17.48h-17.14v42Z" transform="translate(-638.25 -470.31)"></path><path class="cls-1" d="M1273.2,573.24q-9.32,8.73-23,8.74t-22.94-8.74q-9.26-8.75-9.26-22.43t9.32-22.37q9.32-8.79,22.88-8.79a32.18,32.18,0,0,1,23,8.85,29.43,29.43,0,0,1,9.37,22.31Q1282.52,564.51,1273.2,573.24Zm-33.92-11.79a14.88,14.88,0,0,0,10.92,4.2,15.11,15.11,0,0,0,11-4.2,15.14,15.14,0,0,0-.06-21.22A15.08,15.08,0,0,0,1250.2,536a14.88,14.88,0,0,0-10.92,4.19,15.42,15.42,0,0,0,0,21.28Z" transform="translate(-638.25 -470.31)"></path></svg>